<svg xmlns="http://www.w3.org/2000/svg" xmlns:xlink="http://www.w3.org/1999/xlink" version="1.1" x="0px" y="0px" viewBox="0 0 100 125" style="enable-background:new 0 0 100 100;" xml:space="preserve"><g><circle cx="50" cy="50" r="36.2"/><path d="M50,9.6C27.7,9.6,9.6,27.7,9.6,50S27.7,90.4,50,90.4S90.4,72.3,90.4,50S72.3,9.6,50,9.6z M50,88.2   c-21.1,0-38.2-17.1-38.2-38.2S28.9,11.8,50,11.8S88.2,28.9,88.2,50S71.1,88.2,50,88.2z"/><path d="M93.3,59.4c0.7-3.1,1.1-6.2,1.1-9.4c0-3.3-0.4-6.4-1-9.4c0.1-0.1,0.1-0.2,0.2-0.4c0.7-1.4,0.8-3,0.3-4.5   c-0.5-1.5-1.5-2.7-3-3.4l-0.1-0.1l-0.1,0l-0.1,0c-2.6-5.7-6.4-11-11.1-15.2c-0.2-1.6-1.1-3.2-2.4-4.2l0,0l0,0   c-1.1-0.7-2.2-1.1-3.4-1.1c-0.3,0-0.6,0-0.9,0.1c-0.2,0-0.3,0-0.5,0.1C66.8,8.7,60.6,6.7,54.3,6c-1.1-1.3-2.7-2-4.5-2   c-1.7,0-3.3,0.7-4.4,2c-6.3,0.6-12.4,2.6-17.9,5.8l0,0l-0.1,0l-0.1,0c-0.3-0.1-0.7-0.1-1-0.1c-1.2,0-2.3,0.4-3.4,1.1   c-1.3,0.8-2.1,2.2-2.4,3.8c0,0.2-0.1,0.3-0.1,0.5c-4.7,4.2-8.5,9.4-11,15.2l-0.1,0l-0.2,0.1l-0.2,0.1c-1.3,0.7-2.3,1.9-2.9,3.3   l0,0.1l0,0.1c-0.4,1.4-0.3,3,0.3,4.3c0.1,0.2,0.2,0.4,0.3,0.6c-0.4,3.1-0.7,6.1-0.7,9.3c0,3.3,0.4,6.4,1,9.4   c-0.1,0.1-0.1,0.2-0.2,0.4c-0.7,1.4-0.8,3-0.3,4.5c0.5,1.6,1.7,2.9,3.2,3.6c2.5,5.7,6.4,11,11.1,15.2v0.2l0,0.2   c0.3,1.7,1.2,3,2.4,3.9c1.1,0.8,2.3,1.2,3.4,1.2H27c0.2,0,0.5,0,0.7-0.1c5.3,3.1,11.4,5.1,17.8,5.8c1.1,1.3,2.7,2,4.5,2   c1.7,0,3.3-0.7,4.4-2c6.3-0.6,12.4-2.6,17.9-5.9c0.4,0.1,0.8,0.1,1.2,0.1c1.4,0,2.5-0.4,3.5-1.2c1.4-0.9,2.2-2.5,2.4-4.2   c4.7-4.2,8.5-9.5,11.1-15.2c1.5-0.7,2.7-2,3.2-3.6c0.4-1.4,0.3-3-0.3-4.3C93.5,59.7,93.4,59.5,93.3,59.4z M91.2,59.8   c0.2,0.3,0.4,0.5,0.5,0.8c0.4,0.9,0.5,2,0.2,3c-0.4,1.3-1.5,2.3-2.8,2.6c-2.6,6.2-6.6,11.6-11.6,15.9c0.1,1.3-0.4,2.7-1.6,3.5   c-0.7,0.6-1.5,0.8-2.3,0.8c-0.5,0-1-0.1-1.5-0.3c-5.5,3.4-11.9,5.6-18.7,6.1c-0.7,1.1-2,1.9-3.4,1.9c-1.5,0-2.7-0.8-3.4-1.9   c-6.8-0.6-13.2-2.7-18.7-6.1c-0.3,0.2-0.6,0.3-0.9,0.3c-0.2,0-0.4,0-0.6,0c-0.8,0-1.6-0.3-2.3-0.8C23.2,85,22.7,84,22.5,83   c0-0.3,0-0.6,0-0.9c-5-4.3-9-9.7-11.6-15.9c-1.3-0.3-2.4-1.2-2.8-2.6c-0.4-1-0.3-2.1,0.2-3c0.1-0.3,0.3-0.6,0.5-0.8   C8,56.7,7.6,53.4,7.6,50s0.4-6.7,0.8-9.8c-0.2-0.3-0.4-0.5-0.5-0.8c-0.4-0.9-0.5-2-0.2-3c0.4-1,1.1-1.8,2-2.3   c0.3-0.1,0.6-0.2,0.9-0.3c2.6-6.2,6.6-11.6,11.6-15.9c0-0.3-0.1-0.6,0-0.9c0.2-1.1,0.7-2,1.6-2.6c0.9-0.6,1.9-0.9,3-0.7   c0.3,0.1,0.6,0.2,0.9,0.3c5.5-3.4,11.9-5.6,18.7-6.1c0.7-1.1,2-1.9,3.4-1.9c1.5,0,2.7,0.8,3.4,1.9C60,8.5,66.4,10.6,71.9,14   c0.3-0.2,0.6-0.3,0.9-0.3c1.1-0.2,2.1,0.1,3,0.7c1.1,0.8,1.7,2.2,1.6,3.5c5,4.3,9,9.7,11.6,15.9c0.3,0.1,0.6,0.2,0.9,0.3   c1,0.5,1.7,1.3,2,2.3c0.4,1,0.3,2.1-0.2,3c-0.1,0.3-0.3,0.6-0.5,0.8c0.8,3.1,1.2,6.4,1.2,9.8C92.4,53.3,92,56.6,91.2,59.8z"/></g><text x="0" y="115" fill="#000000" font-size="5px" font-weight="bold" font-family="'Helvetica Neue', Helvetica, Arial-Unicode, Arial, Sans-serif">Created by Artem  Kovyazin</text><text x="0" y="120" fill="#000000" font-size="5px" font-weight="bold" font-family="'Helvetica Neue', Helvetica, Arial-Unicode, Arial, Sans-serif">from the Noun Project</text></svg>