<svg xmlns="http://www.w3.org/2000/svg" xmlns:xlink="http://www.w3.org/1999/xlink" version="1.1" x="0px" y="0px" viewBox="0 0 100 125" enable-background="new 0 0 100 100" xml:space="preserve"><g><g><path d="M99.18,20.492H0.82c-0.453,0-0.82,0.367-0.82,0.82v57.377c0,0.453,0.367,0.82,0.82,0.82h4.098h90.164h4.098    c0.453,0,0.82-0.367,0.82-0.82V21.312C100,20.859,99.633,20.492,99.18,20.492z M24.59,54.918v22.951H13.935v-6.557h3.278    c0.453,0,0.82-0.367,0.82-0.82V54.918H24.59z M32.787,54.918v15.574c0,0.453,0.367,0.82,0.819,0.82h3.279v6.557H26.229V54.918    H32.787z M45.082,54.918v15.574c0,0.453,0.367,0.82,0.82,0.82h3.278v6.557H38.524v-6.557h3.279c0.453,0,0.82-0.367,0.82-0.82    V54.918H45.082z M61.476,54.918v22.951H50.82v-6.557h3.278c0.453,0,0.82-0.367,0.82-0.82V54.918H61.476z M69.672,54.918v15.574    c0,0.453,0.367,0.82,0.819,0.82h3.279v6.557H63.115V54.918H69.672z M81.967,54.918v15.574c0,0.453,0.367,0.82,0.82,0.82h3.278    v6.557H75.41v-6.557h3.279c0.453,0,0.82-0.367,0.82-0.82V54.918H81.967z M83.606,69.672V54.918h6.558v14.754H83.606z     M77.869,69.672h-6.557V54.918h6.557V69.672z M53.279,69.672h-6.558V54.918h6.558V69.672z M40.983,69.672h-6.557V54.918h6.557    V69.672z M16.394,69.672H9.836V54.918h6.558V69.672z M9.017,71.312h3.278v6.557H5.738V54.918h2.459v15.574    C8.197,70.944,8.564,71.312,9.017,71.312z M87.705,77.869v-6.557h3.278c0.453,0,0.82-0.367,0.82-0.82V54.918h2.459v22.951H87.705z     M98.361,77.869h-2.459V54.098c0-0.453-0.367-0.819-0.82-0.819h-4.099h-8.196h-4.099h-8.197H54.098h-8.196h-4.099h-8.197H17.213    H9.017H4.918c-0.453,0-0.82,0.367-0.82,0.819v23.771H1.639V22.131h96.722V77.869z"/><path d="M21.312,46.721c2.712,0,4.918-2.206,4.918-4.918s-2.206-4.918-4.918-4.918s-4.918,2.206-4.918,4.918    S18.6,46.721,21.312,46.721z M20.492,38.641v3.162c0,0.453,0.367,0.82,0.82,0.82s0.82-0.367,0.82-0.82v-3.162    c1.41,0.367,2.459,1.639,2.459,3.162c0,1.808-1.471,3.279-3.279,3.279c-1.808,0-3.279-1.471-3.279-3.279    C18.033,40.28,19.082,39.008,20.492,38.641z"/><path d="M33.606,46.721c2.712,0,4.918-2.206,4.918-4.918s-2.206-4.918-4.918-4.918s-4.918,2.206-4.918,4.918    S30.895,46.721,33.606,46.721z M32.787,38.641v3.162c0,0.453,0.367,0.82,0.819,0.82s0.82-0.367,0.82-0.82v-3.162    c1.41,0.367,2.459,1.639,2.459,3.162c0,1.808-1.471,3.279-3.279,3.279c-1.808,0-3.279-1.471-3.279-3.279    C30.328,40.28,31.377,39.008,32.787,38.641z"/><path d="M50,46.721c2.712,0,4.918-2.206,4.918-4.918S52.712,36.885,50,36.885s-4.918,2.206-4.918,4.918S47.288,46.721,50,46.721z     M49.18,38.641v3.162c0,0.453,0.367,0.82,0.82,0.82s0.82-0.367,0.82-0.82v-3.162c1.41,0.367,2.459,1.639,2.459,3.162    c0,1.808-1.471,3.279-3.279,3.279s-3.279-1.471-3.279-3.279C46.721,40.28,47.771,39.008,49.18,38.641z"/><path d="M62.295,46.721c2.712,0,4.918-2.206,4.918-4.918s-2.206-4.918-4.918-4.918s-4.918,2.206-4.918,4.918    S59.583,46.721,62.295,46.721z M61.476,38.641v3.162c0,0.453,0.367,0.82,0.819,0.82s0.82-0.367,0.82-0.82v-3.162    c1.41,0.367,2.459,1.639,2.459,3.162c0,1.808-1.471,3.279-3.279,3.279c-1.808,0-3.278-1.471-3.278-3.279    C59.017,40.28,60.065,39.008,61.476,38.641z"/><path d="M78.688,36.885c-2.712,0-4.918,2.206-4.918,4.918s2.206,4.918,4.918,4.918s4.918-2.206,4.918-4.918    S81.4,36.885,78.688,36.885z M78.688,45.082c-1.808,0-3.279-1.471-3.279-3.279c0-1.523,1.049-2.795,2.459-3.162v3.162    c0,0.453,0.367,0.82,0.82,0.82s0.82-0.367,0.82-0.82v-3.162c1.41,0.367,2.459,1.639,2.459,3.162    C81.967,43.611,80.497,45.082,78.688,45.082z"/><path d="M90.983,36.885c-2.712,0-4.918,2.206-4.918,4.918s2.206,4.918,4.918,4.918c2.712,0,4.918-2.206,4.918-4.918    S93.696,36.885,90.983,36.885z M90.983,45.082c-1.808,0-3.278-1.471-3.278-3.279c0-1.523,1.049-2.795,2.459-3.162v3.162    c0,0.453,0.367,0.82,0.819,0.82s0.82-0.367,0.82-0.82v-3.162c1.41,0.367,2.459,1.639,2.459,3.162    C94.262,43.611,92.792,45.082,90.983,45.082z"/><path d="M4.918,46.721h4.099c0.453,0,0.819-0.367,0.819-0.819v-8.197c0-0.453-0.367-0.82-0.819-0.82H4.918    c-0.453,0-0.82,0.367-0.82,0.82v8.197C4.098,46.354,4.465,46.721,4.918,46.721z M5.738,38.524h2.459v6.558H5.738V38.524z"/><path d="M94.502,28.929l-4.098,4.098c-0.32,0.32-0.32,0.839,0,1.159c0.16,0.16,0.37,0.24,0.579,0.24c0.21,0,0.419-0.08,0.58-0.24    l4.099-4.098c0.32-0.32,0.32-0.839,0-1.159C95.341,28.608,94.823,28.608,94.502,28.929z"/><path d="M86.306,34.186c0.16,0.16,0.37,0.24,0.58,0.24c0.209,0,0.419-0.08,0.58-0.24l8.197-8.197c0.32-0.32,0.32-0.839,0-1.159    c-0.32-0.32-0.839-0.32-1.159,0l-8.197,8.197C85.985,33.347,85.985,33.866,86.306,34.186z"/><path d="M82.208,34.186c0.16,0.16,0.37,0.24,0.58,0.24c0.209,0,0.419-0.08,0.579-0.24l8.197-8.197c0.32-0.32,0.32-0.839,0-1.159    c-0.32-0.32-0.839-0.32-1.159,0l-8.197,8.197C81.887,33.347,81.887,33.866,82.208,34.186z"/><path d="M78.109,34.186c0.16,0.16,0.37,0.24,0.58,0.24c0.21,0,0.419-0.08,0.58-0.24l8.197-8.197c0.32-0.32,0.32-0.839,0-1.159    c-0.32-0.32-0.839-0.32-1.159,0l-8.197,8.197C77.789,33.347,77.789,33.866,78.109,34.186z"/><path d="M74.011,34.186c0.16,0.16,0.37,0.24,0.58,0.24c0.209,0,0.419-0.08,0.58-0.24l8.196-8.197c0.32-0.32,0.32-0.839,0-1.159    c-0.32-0.32-0.839-0.32-1.159,0l-8.197,8.197C73.69,33.347,73.69,33.866,74.011,34.186z"/><path d="M70.492,34.426c0.21,0,0.419-0.08,0.58-0.24l8.197-8.197c0.32-0.32,0.32-0.839,0-1.159c-0.32-0.32-0.839-0.32-1.159,0    l-8.197,8.197c-0.32,0.32-0.32,0.839,0,1.159C70.072,34.346,70.282,34.426,70.492,34.426z"/><path d="M70.492,30.328c0.21,0,0.419-0.08,0.58-0.24l4.099-4.099c0.32-0.32,0.32-0.839,0-1.159c-0.32-0.32-0.839-0.32-1.159,0    l-4.099,4.099c-0.32,0.32-0.32,0.839,0,1.159C70.072,30.248,70.282,30.328,70.492,30.328z"/></g></g></svg>
