<svg xmlns="http://www.w3.org/2000/svg" xmlns:xlink="http://www.w3.org/1999/xlink" version="1.1" x="0px" y="0px" viewBox="0 0 100 125" enable-background="new 0 0 100 100" xml:space="preserve"><g><path d="M90.694,41.33c-1.455,0-2.7,0.865-3.271,2.106h-1.937h-3.503v-8.529v-1.51l-3.734,1.51l-8.935,3.612v-3.612v-5.252   c0-1.104-0.896-2-2-2s-2,0.896-2,2v3.302c-1.014-0.521-2.075-1.026-3.178-1.508v-5.456c0-1.104-0.896-2-2-2s-2,0.896-2,2v3.893   c-1.03-0.357-2.09-0.687-3.179-0.988v-5.567c0-1.104-0.896-2-2-2s-2,0.896-2,2v4.638c-2.836-0.538-5.833-0.857-8.985-0.857   c-18.295,0-30.295,4.995-33.188,13.75c-1.753,0.529-3.039,2.165-3.039,4.075c0,1.922,1.295,3.561,3.058,4.083   c1.253,3.727,4.232,6.874,8.69,9.167c0.086,0.192,0.18,0.375,0.281,0.553l8.568,14.839c1.733,3.005,5.812,5.36,9.284,5.36h5.104   c1.946,0,3.505-0.767,4.276-2.104c0.772-1.337,0.657-3.07-0.315-4.757l-5.406-9.36c0.924,0.03,1.808,0.045,2.687,0.045   c3.152,0,6.149-0.32,8.985-0.857v4.638c0,1.104,0.896,2,2,2s2-0.896,2-2v-5.567c1.089-0.301,2.148-0.631,3.179-0.988v3.893   c0,1.104,0.896,2,2,2s2-0.896,2-2v-5.456c1.103-0.482,2.164-0.987,3.178-1.508v3.302c0,1.104,0.896,2,2,2s2-0.896,2-2v-3.785   v-5.077l12.558,5.077l0.111,0.045v-0.045v-9.996h3.503h1.936c0.569,1.241,1.815,2.106,3.271,2.106c1.994,0,3.607-1.613,3.607-3.604   C94.302,42.943,92.688,41.33,90.694,41.33z M10.308,46.195l-0.314-0.003c-0.688-0.006-1.246-0.57-1.246-1.256   c0-0.682,0.557-1.245,1.24-1.255l0.32-0.005c-0.057,0.48-0.077,0.907-0.077,1.26C10.23,45.289,10.251,45.716,10.308,46.195z    M24.454,64.305h2.97c2.539,0.521,5.89,0.989,9.948,1.093l0.285,0.495H25.371L24.454,64.305z M25.948,66.893h12.287l0.916,1.587   H26.865L25.948,66.893z M42.411,75.333c-0.219,0.378-0.846,0.604-1.679,0.604h-5.104c-1.252,0-2.706-0.508-3.98-1.283h10.847   C42.532,74.924,42.512,75.16,42.411,75.333z M42.096,73.578c0.016,0.026,0.023,0.05,0.037,0.077h-11.85   c-0.551-0.488-1.021-1.021-1.341-1.576l-0.006-0.011h12.287L42.096,73.578z M39.729,69.479l0.918,1.588H28.359l-0.917-1.588H39.729   z M50.959,58.833c-2.832,0.582-5.832,0.929-8.985,0.929c-1.649,0-3.323-0.054-5.269-0.169l-2.781-0.165l0.01,0.018   c-7.078-0.738-11.817-2.359-14.775-3.787c-3.126-1.555-5.406-3.54-6.715-5.836c-0.027-0.054-0.058-0.108-0.084-0.162   c-0.018-0.035-0.034-0.07-0.051-0.105c-0.897-1.896-1.078-3.583-1.078-4.618c0-1.139,0.221-3.069,1.374-5.196   c3.731-6.083,14.344-9.629,29.369-9.629c3.151,0,6.152,0.348,8.985,0.932V58.833z M58.138,56.762   c-1.028,0.383-2.087,0.741-3.179,1.067v-2.041h3.179V56.762z M58.138,54.788h-3.179V53.2h3.179V54.788z M58.138,52.2h-3.179v-1.588   h3.179V52.2z M58.138,49.612h-3.179v-1.588h3.179V49.612z M58.138,47.024h-3.179v-1.588h3.179V47.024z M58.138,44.437h-3.179   v-1.588h3.179V44.437z M58.138,41.849h-3.179v-1.588h3.179V41.849z M58.138,39.261h-3.179v-1.588h3.179V39.261z M58.138,36.673   h-3.179v-1.588h3.179V36.673z M58.138,34.085h-3.179V32.05c1.092,0.326,2.15,0.685,3.179,1.069V34.085z M65.315,53.458   c-0.822,0.453-1.677,0.898-2.566,1.331h-0.611V53.2h3.178V53.458z M65.315,52.2h-3.178v-1.588h3.178V52.2z M65.315,49.612h-3.178   v-1.588h3.178V49.612z M65.315,47.024h-3.178v-1.588h3.178V47.024z M65.315,44.437h-3.178v-1.588h3.178V44.437z M65.315,41.849   h-3.178v-1.588h3.178V41.849z M65.315,39.261h-3.178v-1.588h3.178V39.261z M65.315,36.673h-3.178v-1.588h0.591   c0.897,0.436,1.759,0.885,2.587,1.342V36.673z M78.984,52.028l-3.502-1.416h3.502V52.028z M78.984,49.612h-5.563v-1.588h5.563   V49.612z M78.984,47.024h-5.563v-1.588h5.563V47.024z M78.984,44.437h-5.563v-1.588h5.563V44.437z M78.984,41.849h-5.563v-1.588   h5.563V41.849z M78.984,39.261h-3.498l3.498-1.414V39.261z"/><polygon points="30.623,44.5 26.015,41.295 23.729,44.578 30.622,49.373 36.377,45.372 40.989,48.579 43.272,45.294 36.377,40.501     "/></g></svg>
