<svg xmlns="http://www.w3.org/2000/svg" xmlns:xlink="http://www.w3.org/1999/xlink" version="1.1" x="0px" y="0px" viewBox="0 0 100 125" style="enable-background:new 0 0 100 100;" xml:space="preserve"><style type="text/css">
	.st0{fill:none;}
	.st1{clip-path:url(#b);}
	.st2{clip-path:url(#SVGID_4_);}
	.st3{clip-path:url(#SVGID_6_);}
	.st4{clip-path:url(#SVGID_8_);}
	.st5{clip-path:url(#SVGID_10_);}
	.st6{clip-path:url(#SVGID_12_);}
	.st7{clip-path:url(#SVGID_14_);}
	.st8{clip-path:url(#SVGID_16_);}
</style><g><defs><rect id="a" x="4.8" y="6.9" width="90" height="87.3"/></defs><clipPath id="b"><use xlink:href="#a" style="" overflow="visible"/></clipPath><path class="st1" d="M92,53.6c0,2.7,0,3-1.5,3.1c0.3-0.7,0.3-1,0.3-1.1v-6.1c0-1.4-0.1-1.4-0.4-1.9c1.3,0.2,1.5,0.5,1.5,1.8   L92,53.6z M70.2,50.9L70,61l-1.3,0.3l-0.3-10c-0.1-1.8-0.1-1.8-0.8-2.4c0.7-0.3,1.3-0.4,1.7-0.4C70.1,48.6,70.2,48.7,70.2,50.9    M50.8,55.3c0,2-2.1,2.7-3.5,2.9c3.1-1.5,2.4-3.3,3.1-3.3C50.6,54.8,50.8,55,50.8,55.3 M46.5,67.1l-3.7,5.3l0.3-5.4L46.5,67.1z    M52.1,67.2l-9.2,13.6L42.8,76l6.2-8.7L52.1,67.2z M39.4,66.7l-0.2,3.9h-2.7l0.3-3.8L39.4,66.7z M38.5,85.9l-2.3,1.3l-0.1-2.4   l2.3-2.6L38.5,85.9z M39.1,72.4l-0.5,8L36,82.8l0.5-10.4H39.1z M45.4,51.6l-21.3-1.3l21,0.4L45.4,51.6z M47.4,52.3L47,53.1L12.8,51   l0.5-0.8L47.4,52.3z M15.2,47.5l4.6,0.2l0.9,0.6l23.3,0.6l1.7-1.2H53l-0.4,0.9l-3.9,0.2l-2.5,0.9l-31.3-1c-2-0.1-2.6-0.1-2.6-0.5   C12.4,47.8,13.4,47.5,15.2,47.5 M43.4,60.6l0.7,1.6L9.1,59l0.8-1.5L43.4,60.6z M4.8,60.6c0,1,0.2,1.2,0.7,1.4c6,1,8.9,1.4,9.2,1.7   c0.1,0.1,0.5,3.1,0.5,3.3l1.1,14.6c-0.3,1-0.3,1.9-0.3,2.5c0,0.6,0.1,1,0.6,1.9c-0.1,0.3-0.1,0.7-0.1,0.9c0,0.5,0.5,1.1,1.6,1.1   c0.9,0,1.4-0.6,1.8-2.1c1-0.4,1-0.8,1-4.3l1-13.1c0.2-3,0.8-4.4,2.7-4.4c2.5,0,2.2,0.4,6,0.4c0.4,2.1,0.9,2.3,2.8,2.6l-0.4,13.6   c-0.2,4.6-1.3,4.3-1.3,4.5c0,0.3,0.5,1.2,0.5,1.6c0,0.5-0.9,0.2-0.9,1.6c-0.3-0.3-0.3-0.4-0.5-0.4c-0.3,0-0.6,0.3-0.6,0.7   c0,0.8,6.5,2.8,6.7,2.8c0.6,0,1.1-0.6,1.7-1.4l2.6,0.3c2.3,0,2.3-0.9,2.3-2.1v-1c0-1.2-0.8-2-0.8-2.4c0-0.4,0.3-0.1,1.8-2.4l8.1-12   l2.2,15c-1,1.7-1.3,2.5-1.3,3.6c0,0.9,2.5,4.9,3.4,4.9c1.4,0,1.4-1.2,1.4-2.8c1.1-0.6,1.6-0.9,1.6-2.4c0-0.9-0.4-1.6-1.1-2.4   l1-12.9c0.4-4.7,0.4-4.9,3.4-6.6c6.3-3.6,6.8-2.6,6.8-3.6v-0.7c0-0.9,2.1-0.4,3.1-1.9c0.5-0.7,0.9-1.2,3.5-1.2c2.6,0,6.2,1,7.1,1.7   c0.7,0.5,0.7,0.5,0.9,4l0.7,9.9c-0.5,1-0.7,1.5-0.7,2c0,0.2,1.6,4.3,3,4.3c0.6,0,1-0.3,1.3-0.8c0.1-0.2,0.9-3.5,0.9-3.7   c0-0.5-0.1-1.4-0.4-2.3l0.3-9.7c0-3.6,0-4,1-5c3.4-3.3,3.4-3.4,4-3.5l0.1-7.8c0-2-0.2-2.6-1.8-2.6l-16.8,0.8   C87.6,40.6,93.7,34,93.7,28.9c0-4.6-3.5-6-9.1-6c-2.6,0-5.2,0.3-9.1,0.3c-3.8,0-5-0.7-6.3-1.8L85.5,7.1L59.6,6.9L28.8,36.6l1.5,0.1   L60.4,9.2h1L31.4,37.4l-4.9,0.6c-3.9,0.4-4.3,1.1-5.2,4.8l-1.1,4.1l-7.2-0.1c-2.2,0-3.2,0.1-3.2,2.1c0,1.2,0.9,2.5,0.9,3   c0,3.1-5.4,0.7-5.5,4.7L4.8,60.6z"/></g><text x="0" y="115" fill="#000000" font-size="5px" font-weight="bold" font-family="'Helvetica Neue', Helvetica, Arial-Unicode, Arial, Sans-serif">Created by Liane Kirschner</text><text x="0" y="120" fill="#000000" font-size="5px" font-weight="bold" font-family="'Helvetica Neue', Helvetica, Arial-Unicode, Arial, Sans-serif">from the Noun Project</text></svg>